<svg xmlns="http://www.w3.org/2000/svg" fill="none" viewBox="-0.5 -0.5 48 48" id="Arrow-Right-Circle-1--Streamline-Plump-Neon" height="48" width="48">
  <desc>
    Arrow Right Circle 1 Streamline Icon: https://streamlinehq.com
  </desc>
  <g id="tailless-line-arrow-right-circle--arrow-keyboard-circle-button-right">
    <path id="Vector" stroke="#c71dff" stroke-linecap="round" stroke-linejoin="round" d="M45.041666666666664 23.5a21.541666666666664 21.541666666666664 0 1 1 -43.08333333333333 0 21.541666666666664 21.541666666666664 0 1 1 43.08333333333333 0" stroke-width="3"></path>
    <path id="Vector_2" fill-rule="evenodd" stroke="#000cfe" stroke-linecap="round" stroke-linejoin="round" d="M23.643349999999998 23.153668749999998c0.19123125 0.19113333333333335 0.19123125 0.5011375 0.00009791666666666667 0.69236875l-6.3632124999999995 6.3632124999999995c-0.9493020833333333 0.9494 -1.1443520833333334 2.4346 -0.2833708333333333 3.4646833333333333 0.6861999999999999 0.82103125 1.5040979166666666 1.6384395833333332 2.3419708333333333 2.2277020833333334 0.9864125 0.6937395833333333 2.253845833333333 0.3684604166666667 3.150958333333333 -0.4376875 3.205302083333333 -2.8804145833333332 7.443820833333333 -7.175627083333333 9.57478125 -9.998466666666666 0.9001479166666666 -1.1924291666666667 0.9001479166666666 -2.7388270833333332 -0.00009791666666666667 -3.9312562499999997 -2.1309604166666665 -2.8226437499999997 -6.36938125 -7.117758333333333 -9.574683333333333 -9.998172916666666 -0.8971125 -0.8061479166666666 -2.164545833333333 -1.1314270833333333 -3.150958333333333 -0.4376875 -0.837775 0.5891645833333333 -1.6557708333333334 1.4066708333333333 -2.3418729166666665 2.2276041666666666 -0.8610791666666666 1.03018125 -0.6660291666666667 2.51538125 0.2833708333333333 3.4647812499999997l6.363016666666667 6.36291875Z" clip-rule="evenodd" stroke-width="3"></path>
  </g>
</svg>
