<svg xmlns="http://www.w3.org/2000/svg" viewBox="0 0 24 24" fill="currentColor">
  <path d="M19.14,12.94a7.14,7.14,0,0,0,.05-.94,7.14,7.14,0,0,0-.05-.94l2.11-1.65a.5.5,0,0,0,.12-.64l-2-3.46a.5.5,0,0,0-.6-.22L16.9,5.5a7.09,7.09,0,0,0-1.63-.94l-.25-2.65A.5.5,0,0,0,14.53,1H9.47a.5.5,0,0,0-.5.44L8.72,4.09A7.09,7.09,0,0,0,7.09,5l-2.84-.45a.5.5,0,0,0-.6.22l-2,3.46a.5.5,0,0,0,.12.64L3.86,11.06a7.14,7.14,0,0,0-.05.94,7.14,7.14,0,0,0,.05.94L1.75,14.59a.5.5,0,0,0-.12.64l2,3.46a.5.5,0,0,0,.6.22L7.1,18.5a7.09,7.09,0,0,0,1.63.94l.25,2.65a.5.5,0,0,0,.5.44h5.06a.5.5,0,0,0,.5-.44l.25-2.65a7.09,7.09,0,0,0,1.63-.94l2.84.45a.5.5,0,0,0,.6-.22l2-3.46a.5.5,0,0,0-.12-.64ZM12,15.5A3.5,3.5,0,1,1,15.5,12,3.5,3.5,0,0,1,12,15.5Z"/>
</svg>
